<svg width="243" height="27" viewBox="0 0 243 27" fill="none" xmlns="http://www.w3.org/2000/svg">
<path d="M40.125 19H38.6562V10.6641C38.6562 10.5026 38.6562 10.3255 38.6562 10.1328C38.6615 9.9349 38.6667 9.75781 38.6719 9.60156H38.6172C38.5443 9.73177 38.4635 9.875 38.375 10.0312C38.2865 10.1875 38.1927 10.3464 38.0938 10.5078L32.9062 19H31.3125V7.625H32.7891V15.9688C32.7891 16.125 32.7865 16.3021 32.7812 16.5C32.7812 16.6927 32.7786 16.8672 32.7734 17.0234H32.8281C32.8906 16.8932 32.9688 16.7526 33.0625 16.6016C33.1562 16.4453 33.2526 16.2839 33.3516 16.1172L38.5391 7.625H40.125V19ZM45.6016 19.2344C44.4141 19.2344 43.5365 18.9427 42.9688 18.3594C42.4062 17.7708 42.125 17.1094 42.125 16.375V16.3359H43.5078V16.375C43.5078 16.8073 43.6641 17.1979 43.9766 17.5469C44.2891 17.8906 44.8333 18.0625 45.6094 18.0625C46.25 18.0625 46.7474 17.9323 47.1016 17.6719C47.4557 17.4115 47.6328 17.0547 47.6328 16.6016C47.6328 16.237 47.5104 15.9453 47.2656 15.7266C47.0208 15.5078 46.6302 15.3984 46.0938 15.3984H44.6641V14.2891H45.8594C46.401 14.2891 46.7891 14.1823 47.0234 13.9688C47.2578 13.75 47.375 13.4557 47.375 13.0859C47.375 12.6641 47.2266 12.3385 46.9297 12.1094C46.638 11.8802 46.2266 11.7656 45.6953 11.7656C45.0286 11.7656 44.5234 11.9245 44.1797 12.2422C43.8411 12.5547 43.6719 12.9557 43.6719 13.4453V13.4922H42.2891V13.4453C42.2891 12.5807 42.5859 11.8906 43.1797 11.375C43.7786 10.8594 44.6172 10.6016 45.6953 10.6016C46.7266 10.6016 47.5026 10.8151 48.0234 11.2422C48.5495 11.6693 48.8125 12.2474 48.8125 12.9766C48.8125 13.3932 48.6719 13.7734 48.3906 14.1172C48.1146 14.4557 47.7396 14.6745 47.2656 14.7734V14.7969C47.8281 14.8802 48.2682 15.0781 48.5859 15.3906C48.9089 15.7031 49.0703 16.1094 49.0703 16.6094C49.0703 17.4531 48.7396 18.1016 48.0781 18.5547C47.4219 19.0078 46.5964 19.2344 45.6016 19.2344ZM51.0703 19V10.8281H53.0156L55.3906 16.4844C55.5156 16.7812 55.5964 16.9896 55.6328 17.1094C55.6693 17.2292 55.7005 17.3516 55.7266 17.4766H55.8047C55.8307 17.3516 55.862 17.2292 55.8984 17.1094C55.9349 16.9896 56.013 16.7865 56.1328 16.5L58.5312 10.8281H60.4375V19H59.0781V13.4297C59.0781 13.1276 59.0807 12.9089 59.0859 12.7734C59.0964 12.638 59.1068 12.5156 59.1172 12.4062H59.0469C59.0208 12.5156 58.9896 12.638 58.9531 12.7734C58.9167 12.9036 58.8359 13.1146 58.7109 13.4062L56.3438 19H55.1172L52.7422 13.3828C52.6328 13.1224 52.5573 12.9219 52.5156 12.7812C52.474 12.6406 52.4401 12.5156 52.4141 12.4062H52.3438C52.3542 12.5156 52.362 12.638 52.3672 12.7734C52.3776 12.9036 52.3828 13.1042 52.3828 13.375V19H51.0703ZM62.25 15.0391V14.7891C62.25 13.5547 62.5859 12.5495 63.2578 11.7734C63.9349 10.9922 64.8281 10.6016 65.9375 10.6016C67.0469 10.6016 67.901 10.9661 68.5 11.6953C69.099 12.4193 69.3984 13.4036 69.3984 14.6484V15.2344H63.1172V14.0938H67.9609V13.9141C67.9609 13.3203 67.7917 12.8151 67.4531 12.3984C67.1198 11.9766 66.6328 11.7656 65.9922 11.7656C65.2266 11.7656 64.6536 12.0573 64.2734 12.6406C63.8932 13.224 63.7031 13.9401 63.7031 14.7891V15.0391C63.7031 15.888 63.9036 16.6042 64.3047 17.1875C64.7057 17.7708 65.3255 18.0625 66.1641 18.0625C66.6849 18.0625 67.1302 17.9505 67.5 17.7266C67.875 17.4974 68.1797 17.2266 68.4141 16.9141L69.3359 17.6406C69.0755 18.0312 68.6745 18.3958 68.1328 18.7344C67.5964 19.0677 66.9401 19.2344 66.1641 19.2344C64.8984 19.2344 63.9297 18.8438 63.2578 18.0625C62.5859 17.2812 62.25 16.2734 62.25 15.0391ZM71.1641 10.8281H72.5859V14.2656H76.2578V10.8281H77.6797V19H76.2578V15.3828H72.5859V19H71.1641V10.8281ZM79.9766 19V10.8281H81.375V15.9062C81.375 16.0625 81.3724 16.237 81.3672 16.4297C81.3672 16.6172 81.3646 16.7917 81.3594 16.9531H81.4375C81.5104 16.8177 81.5911 16.6745 81.6797 16.5234C81.7682 16.3724 81.8646 16.2161 81.9688 16.0547L85.2188 10.8281H86.6484V19H85.2422V13.9375C85.2422 13.776 85.2448 13.5938 85.25 13.3906C85.2604 13.1875 85.2708 13.0052 85.2812 12.8438H85.1641C85.1016 12.9792 85.026 13.1302 84.9375 13.2969C84.849 13.4583 84.7552 13.6198 84.6562 13.7812L81.4062 19H79.9766ZM88.0312 11.9453V10.8281H94.5938V11.9453H92.0234V19H90.6016V11.9453H88.0312ZM97.3984 10.8281V13.6328H99.2891C100.31 13.6328 101.096 13.8724 101.648 14.3516C102.201 14.8307 102.477 15.4792 102.477 16.2969C102.477 17.1146 102.201 17.7708 101.648 18.2656C101.096 18.7552 100.31 19 99.2891 19H95.9766V10.8281H97.3984ZM99.2891 14.75H97.3984V17.8828H99.2891C99.9349 17.8828 100.388 17.7344 100.648 17.4375C100.914 17.1354 101.047 16.7552 101.047 16.2969C101.047 15.8438 100.914 15.474 100.648 15.1875C100.388 14.8958 99.9349 14.75 99.2891 14.75ZM114.133 21.1016V19H108.18V21.1016H106.891V17.8828H115.422V21.1016H114.133ZM109.773 11.9453L109.641 15.0547C109.609 15.8411 109.557 16.4505 109.484 16.8828C109.411 17.3151 109.307 17.6953 109.172 18.0234H107.672C107.839 17.7943 107.979 17.4479 108.094 16.9844C108.214 16.5208 108.294 15.8073 108.336 14.8438L108.508 10.8281H114.219V19H112.789V11.9453H109.773ZM116.273 16.5938C116.273 15.7708 116.599 15.1276 117.25 14.6641C117.906 14.2005 118.742 13.9688 119.758 13.9688H121.617V13.3984C121.617 12.9036 121.49 12.5026 121.234 12.1953C120.979 11.888 120.539 11.7344 119.914 11.7344C119.289 11.7344 118.841 11.8646 118.57 12.125C118.305 12.3802 118.172 12.6771 118.172 13.0156V13.0625H116.75V13.0156C116.75 12.3698 117.036 11.8073 117.609 11.3281C118.188 10.8438 118.969 10.6016 119.953 10.6016C120.932 10.6016 121.69 10.8359 122.227 11.3047C122.768 11.7682 123.039 12.4661 123.039 13.3984V17.125C123.039 17.4635 123.065 17.7839 123.117 18.0859C123.169 18.3828 123.242 18.6458 123.336 18.875V19H121.961C121.888 18.8698 121.82 18.7005 121.758 18.4922C121.701 18.2839 121.664 18.0755 121.648 17.8672C121.456 18.2057 121.143 18.5052 120.711 18.7656C120.284 19.026 119.734 19.1562 119.062 19.1562C118.281 19.1562 117.62 18.9375 117.078 18.5C116.542 18.0573 116.273 17.4219 116.273 16.5938ZM117.695 16.5234C117.695 16.9922 117.831 17.3594 118.102 17.625C118.372 17.8854 118.794 18.0156 119.367 18.0156C119.94 18.0156 120.458 17.8177 120.922 17.4219C121.385 17.026 121.617 16.6068 121.617 16.1641V14.9922H119.914C119.185 14.9922 118.633 15.1302 118.258 15.4062C117.883 15.6823 117.695 16.0547 117.695 16.5234ZM125.289 10.8281H126.711V14.2656H130.383V10.8281H131.805V19H130.383V15.3828H126.711V19H125.289V10.8281ZM134.102 10.8281H135.523V14.2656H139.195V10.8281H140.617V19H139.195V15.3828H135.523V19H134.102V10.8281ZM144.336 10.8281V13.6328H146.227C147.247 13.6328 148.034 13.8724 148.586 14.3516C149.138 14.8307 149.414 15.4792 149.414 16.2969C149.414 17.1146 149.138 17.7708 148.586 18.2656C148.034 18.7552 147.247 19 146.227 19H142.914V10.8281H144.336ZM146.227 14.75H144.336V17.8828H146.227C146.872 17.8828 147.326 17.7344 147.586 17.4375C147.852 17.1354 147.984 16.7552 147.984 16.2969C147.984 15.8438 147.852 15.474 147.586 15.1875C147.326 14.8958 146.872 14.75 146.227 14.75ZM150.508 19V10.8281H151.93V19H150.508ZM153.734 15.0391V14.7891C153.734 13.5547 154.07 12.5495 154.742 11.7734C155.419 10.9922 156.312 10.6016 157.422 10.6016C158.531 10.6016 159.385 10.9661 159.984 11.6953C160.583 12.4193 160.883 13.4036 160.883 14.6484V15.2344H154.602V14.0938H159.445V13.9141C159.445 13.3203 159.276 12.8151 158.938 12.3984C158.604 11.9766 158.117 11.7656 157.477 11.7656C156.711 11.7656 156.138 12.0573 155.758 12.6406C155.378 13.224 155.188 13.9401 155.188 14.7891V15.0391C155.188 15.888 155.388 16.6042 155.789 17.1875C156.19 17.7708 156.81 18.0625 157.648 18.0625C158.169 18.0625 158.615 17.9505 158.984 17.7266C159.359 17.4974 159.664 17.2266 159.898 16.9141L160.82 17.6406C160.56 18.0312 160.159 18.3958 159.617 18.7344C159.081 19.0677 158.424 19.2344 157.648 19.2344C156.383 19.2344 155.414 18.8438 154.742 18.0625C154.07 17.2812 153.734 16.2734 153.734 15.0391Z" fill="white"/>
<path d="M22.5 13.5L4.5 13.5M4.5 13.5L9 18M4.5 13.5L9 9" stroke="white" stroke-width="0.833333" stroke-linecap="round" stroke-linejoin="round"/>
</svg>
