<svg width="123" height="26" viewBox="0 0 123 26" fill="none" xmlns="http://www.w3.org/2000/svg">
<path d="M15.8745 20.7537C14.7232 20.7561 13.586 20.4956 12.5469 19.9915C11.5078 19.4875 10.5933 18.7527 9.87081 17.8413C9.14841 16.93 8.6365 15.8654 8.37281 14.7261C8.10919 13.5867 8.1005 12.4017 8.34752 11.2585C8.59453 10.1153 9.09091 9.04311 9.79993 8.12094C10.509 7.19882 11.4128 6.45028 12.4444 5.93061C13.476 5.41094 14.6092 5.13333 15.7605 5.11837C16.9117 5.10341 18.0516 5.35144 19.096 5.84412C19.3995 5.98698 19.6348 6.24661 19.7501 6.56582C19.8653 6.88505 19.8511 7.2377 19.7106 7.54621C19.5701 7.85479 19.3147 8.09405 19.0007 8.21118C18.6867 8.32837 18.3398 8.31391 18.0363 8.1711C17.2493 7.80183 16.3835 7.63987 15.5188 7.70012C14.6541 7.76036 13.8181 8.04084 13.088 8.51576C12.3579 8.99067 11.7571 9.64473 11.3409 10.4177C10.9247 11.1906 10.7066 12.0577 10.7066 12.9388C10.7066 13.8199 10.9247 14.687 11.3409 15.4599C11.7571 16.2329 12.3579 16.8869 13.088 17.3618C13.8181 17.8368 14.6541 18.1172 15.5188 18.1775C16.3835 18.2377 17.2493 18.0758 18.0363 17.7066C18.3398 17.5637 18.6867 17.5492 19.0007 17.6664C19.3147 17.7836 19.5701 18.0228 19.7106 18.3314C19.8511 18.64 19.8653 18.9926 19.7501 19.3118C19.6348 19.631 19.3995 19.8906 19.096 20.0335C18.0878 20.5129 16.9875 20.7589 15.8745 20.7537ZM5.77413 20.6983C5.43897 20.6967 5.11798 20.5607 4.88098 20.3197C4.64399 20.0788 4.51014 19.7524 4.50855 19.4117V7.62935H1.17808C0.858343 7.60683 0.558923 7.46181 0.340264 7.22356C0.121606 6.98537 0 6.67172 0 6.3459C0 6.02004 0.121606 5.70632 0.340264 5.4681C0.558923 5.22988 0.858343 5.08484 1.17808 5.06232H7.03363V19.4117C7.03363 19.7519 6.90112 20.0782 6.66514 20.3193C6.4291 20.5604 6.10873 20.6967 5.77413 20.6983ZM21.73 14.2223H18.9506C18.6309 14.1997 18.3315 14.0548 18.1128 13.8166C17.8942 13.5783 17.7725 13.2646 17.7725 12.9388C17.7725 12.613 17.8942 12.2993 18.1128 12.061C18.3315 11.8228 18.6309 11.6779 18.9506 11.6554H21.7058C21.879 11.6431 22.0528 11.6672 22.2163 11.7262C22.38 11.7852 22.5299 11.8777 22.6567 11.9981C22.7837 12.1185 22.8848 12.2641 22.954 12.426C23.0232 12.5877 23.059 12.7624 23.059 12.9388C23.059 13.1153 23.0232 13.2899 22.954 13.4517C22.8848 13.6135 22.7837 13.7591 22.6567 13.8795C22.5299 13.9999 22.38 14.0924 22.2163 14.1514C22.0528 14.2104 21.879 14.2345 21.7058 14.2223H21.73ZM32.7387 20.7106C31.2178 20.7106 29.7309 20.2521 28.4663 19.393C27.2016 18.534 26.2159 17.313 25.6338 15.8844C25.0517 14.4559 24.8994 12.884 25.1962 11.3674C25.493 9.85089 26.2254 8.4578 27.3009 7.36446C28.3764 6.2711 29.7467 5.52651 31.2385 5.22485C32.7302 4.9232 34.2765 5.07806 35.6817 5.66979C37.087 6.26151 38.288 7.26357 39.133 8.54918C39.9781 9.83484 40.4291 11.3464 40.4291 12.8926C40.4259 14.9652 39.6146 16.9517 38.1731 18.4172C36.7316 19.8826 34.7774 20.7073 32.7387 20.7106ZM32.7387 7.64165C31.7172 7.64165 30.7186 7.94959 29.8691 8.5266C29.0197 9.10355 28.3577 9.92369 27.9667 10.8832C27.5758 11.8427 27.4734 12.8985 27.6728 13.917C27.8721 14.9357 28.364 15.8713 29.0864 16.6057C29.8087 17.34 30.7291 17.8401 31.7311 18.0427C32.733 18.2453 33.7716 18.1413 34.7154 17.7439C35.6593 17.3464 36.466 16.6735 37.0335 15.81C37.6011 14.9464 37.904 13.9312 37.904 12.8926C37.904 11.5 37.3599 10.1644 36.3911 9.17964C35.4225 8.19494 34.1087 7.64165 32.7387 7.64165ZM26.314 25.9001C26.1481 25.9001 25.9838 25.8668 25.8306 25.802C25.6774 25.7373 25.5383 25.6424 25.4212 25.5229C25.3042 25.4033 25.2116 25.2614 25.1486 25.1053C25.0857 24.9493 25.0537 24.7821 25.0545 24.6134V12.9172C25.0545 12.7491 25.0871 12.5827 25.1504 12.4273C25.2137 12.2719 25.3064 12.1308 25.4234 12.0119C25.5403 11.893 25.6792 11.7987 25.832 11.7343C25.9848 11.6699 26.1486 11.6368 26.314 11.6368C26.4794 11.6368 26.6432 11.6699 26.796 11.7343C26.9488 11.7987 27.0876 11.893 27.2046 12.0119C27.3216 12.1308 27.4144 12.2719 27.4776 12.4273C27.541 12.5827 27.5735 12.7491 27.5735 12.9172V24.6134C27.5743 24.7821 27.5423 24.9493 27.4794 25.1053C27.4164 25.2614 27.3238 25.4033 27.2068 25.5229C27.0897 25.6424 26.9506 25.7373 26.7974 25.802C26.6442 25.8668 26.4799 25.9001 26.314 25.9001ZM49.0338 20.766C47.5128 20.766 46.026 20.3075 44.7613 19.4485C43.4966 18.5894 42.511 17.3684 41.9289 15.9399C41.3468 14.5114 41.1945 12.9394 41.4913 11.4228C41.788 9.90631 42.5204 8.51328 43.5959 7.41989C44.6714 6.32656 46.0418 5.58197 47.5335 5.28031C49.0253 4.97865 50.5716 5.13345 51.9768 5.72517C53.382 6.31689 54.5831 7.31893 55.4281 8.6046C56.2731 9.89027 56.7242 11.4018 56.7242 12.9481C56.7249 13.9749 56.5266 14.9919 56.1404 15.9408C55.7542 16.8897 55.1878 17.7518 54.4735 18.478C53.7592 19.2041 52.9111 19.78 51.9777 20.1726C51.0443 20.5652 50.0439 20.7668 49.0338 20.766ZM49.0338 7.70322C48.012 7.70322 47.0131 8.01129 46.1635 8.58856C45.314 9.16582 44.652 9.98634 44.2612 10.9462C43.8704 11.906 43.7685 12.9621 43.9683 13.9808C44.168 14.9996 44.6606 15.9353 45.3836 16.6694C46.1065 17.4035 47.0275 17.9031 48.0299 18.1051C49.0322 18.307 50.071 18.2021 51.0147 17.8037C51.9584 17.4053 52.7647 16.7313 53.3315 15.867C53.8983 15.0026 54.2003 13.9869 54.1991 12.9481C54.1991 12.2587 54.0654 11.5762 53.8058 10.9395C53.5461 10.3028 53.1655 9.72431 52.6858 9.23722C52.2061 8.75014 51.6367 8.36388 51.01 8.10064C50.3834 7.83747 49.7118 7.7024 49.0338 7.70322ZM55.4586 20.766C55.1245 20.766 54.8042 20.6311 54.568 20.391C54.3318 20.1509 54.1991 19.8252 54.1991 19.4856V13.0096C54.1871 12.8335 54.2108 12.6569 54.2688 12.4907C54.3268 12.3243 54.4179 12.1719 54.5363 12.0429C54.6547 11.9139 54.798 11.811 54.9572 11.7407C55.1163 11.6704 55.2881 11.634 55.4617 11.634C55.6352 11.634 55.8069 11.6704 55.9661 11.7407C56.1253 11.811 56.2685 11.9139 56.3869 12.0429C56.5054 12.1719 56.5964 12.3243 56.6544 12.4907C56.7124 12.6569 56.7362 12.8335 56.7242 13.0096V19.4795C56.7242 19.6481 56.6914 19.8152 56.6277 19.9709C56.564 20.1267 56.4707 20.2681 56.3531 20.387C56.2355 20.506 56.0959 20.6002 55.9424 20.6642C55.7889 20.7281 55.6245 20.7606 55.4586 20.7599V20.766ZM65.3288 20.766C63.8078 20.766 62.321 20.3075 61.0564 19.4485C59.7917 18.5894 58.806 17.3684 58.2239 15.9399C57.6419 14.5114 57.4896 12.9394 57.7863 11.4228C58.083 9.90631 58.8155 8.51328 59.891 7.41989C60.9665 6.32656 62.3368 5.58197 63.8288 5.28031C65.3206 4.97865 66.8663 5.13345 68.272 5.72517C69.677 6.31689 70.8784 7.31893 71.7229 8.6046C72.5681 9.89027 73.0195 11.4018 73.0195 12.9481C73.0195 15.0215 72.2092 17.01 70.7668 18.4762C69.3244 19.9423 67.3685 20.766 65.3288 20.766ZM65.3288 7.70322C64.3068 7.70322 63.3082 8.01129 62.4586 8.58856C61.6091 9.16582 60.947 9.98634 60.5562 10.9462C60.1655 11.906 60.0635 12.9621 60.2633 13.9808C60.4631 14.9996 60.9556 15.9353 61.6786 16.6694C62.4016 17.4035 63.3226 17.9031 64.3252 18.1051C65.327 18.307 66.3661 18.2021 67.3095 17.8037C68.2536 17.4053 69.0594 16.7313 69.6262 15.867C70.1937 15.0026 70.4955 13.9869 70.4942 12.9481C70.4942 12.2587 70.3604 11.5762 70.1011 10.9395C69.8412 10.3028 69.4608 9.72431 68.9808 9.23722C68.5009 8.75014 67.9315 8.36388 67.3051 8.10064C66.6787 7.83747 66.0066 7.7024 65.3288 7.70322ZM58.9162 25.8878C58.5806 25.8878 58.2586 25.7522 58.0213 25.5109C57.784 25.2696 57.6506 24.9423 57.6506 24.6011V12.9049C57.6728 12.5799 57.8155 12.2755 58.0498 12.0532C58.2841 11.8309 58.5927 11.7074 58.9132 11.7074C59.2337 11.7074 59.5423 11.8309 59.7766 12.0532C60.0109 12.2755 60.1536 12.5799 60.1757 12.9049V24.6011C60.1765 24.7698 60.1445 24.937 60.0816 25.093C60.0187 25.249 59.926 25.391 59.809 25.5105C59.692 25.63 59.5529 25.725 59.3996 25.7897C59.2464 25.8544 59.0821 25.8878 58.9162 25.8878ZM97.9917 20.7537C96.8403 20.7561 95.7029 20.4956 94.6637 19.9915C93.6252 19.4875 92.7103 18.7527 91.9882 17.8413C91.2654 16.93 90.7537 15.8654 90.49 14.7261C90.2262 13.5867 90.218 12.4017 90.4646 11.2585C90.7119 10.1153 91.2083 9.04311 91.9171 8.12094C92.626 7.19882 93.5301 6.45028 94.5616 5.93061C95.5932 5.41094 96.7262 5.13333 97.8776 5.11837C99.029 5.10341 100.169 5.35144 101.213 5.84412C101.364 5.91284 101.5 6.01117 101.614 6.13343C101.728 6.2557 101.817 6.39955 101.876 6.55675C101.935 6.71389 101.963 6.88137 101.958 7.04961C101.954 7.21779 101.916 7.38342 101.849 7.53701C101.781 7.69061 101.685 7.82923 101.564 7.94483C101.444 8.06044 101.303 8.15081 101.148 8.2108C100.993 8.27085 100.828 8.29932 100.663 8.29463C100.498 8.28987 100.335 8.25208 100.184 8.1834H100.154C99.4772 7.86189 98.7386 7.69783 97.9917 7.70322C97.2188 7.70183 96.4548 7.87685 95.7574 8.21543C95.06 8.554 94.4456 9.04742 93.9606 9.65938C93.4756 10.2713 93.1319 10.9862 92.9544 11.7512C92.7775 12.5162 92.7718 13.3119 92.9373 14.0796C93.1028 14.8473 93.4363 15.5673 93.9118 16.1866C94.3879 16.806 94.9947 17.3089 95.687 17.6581C96.3794 18.0074 97.1402 18.1942 97.9137 18.2047C98.6866 18.2152 99.4518 18.0492 100.154 17.7189C100.455 17.5719 100.802 17.5529 101.118 17.666C101.434 17.7792 101.692 18.0152 101.837 18.3221C101.982 18.6291 102 18.9818 101.889 19.3028C101.777 19.6237 101.545 19.8866 101.244 20.0335H101.213C100.204 20.5112 99.1044 20.7571 97.9917 20.7537ZM81.6422 20.7537C79.6032 20.7504 77.6491 19.9257 76.208 18.4602C74.7663 16.9948 73.9547 15.0082 73.9515 12.9357C73.9737 12.6107 74.1164 12.3063 74.351 12.084C74.5849 11.8618 74.8937 11.738 75.2145 11.738C75.5347 11.738 75.8434 11.8618 76.0774 12.084C76.312 12.3063 76.4546 12.6107 76.4768 12.9357C76.4768 14.3283 77.0208 15.664 77.9896 16.6487C78.9584 17.6335 80.2721 18.1867 81.6422 18.1867C83.0117 18.1867 84.326 17.6335 85.2942 16.6487C86.2629 15.664 86.8076 14.3283 86.8076 12.9357C86.8298 12.6107 86.9724 12.3063 87.2064 12.084C87.441 11.8618 87.7491 11.738 88.0699 11.738C88.3901 11.738 88.6989 11.8618 88.9334 12.084C89.1674 12.3063 89.31 12.6107 89.3322 12.9357C89.3291 15.0082 88.5182 16.9948 87.0764 18.4602C85.6346 19.9257 83.6806 20.7504 81.6422 20.7537ZM75.217 14.1607C74.8829 14.1607 74.5615 14.026 74.3243 13.7861C74.0872 13.5461 73.9534 13.2205 73.9515 12.8803V6.4043C73.9737 6.07928 74.1164 5.77485 74.351 5.55256C74.5849 5.33027 74.8937 5.20667 75.2145 5.20667C75.5347 5.20667 75.8434 5.33027 76.0774 5.55256C76.312 5.77485 76.4546 6.07928 76.4768 6.4043V12.8803C76.4768 13.2199 76.3443 13.5456 76.1078 13.7857C75.872 14.0258 75.5512 14.1607 75.217 14.1607ZM88.0667 18.4206C87.7326 18.4206 87.4124 18.2857 87.1759 18.0456C86.9401 17.8055 86.8076 17.4797 86.8076 17.1401V6.23195C86.7955 6.05592 86.819 5.8793 86.8773 5.71299C86.935 5.5467 87.0263 5.39429 87.1449 5.26528C87.2628 5.13627 87.4061 5.03338 87.5652 4.96305C87.7244 4.89271 87.8962 4.85641 88.0699 4.85641C88.2436 4.85641 88.4154 4.89271 88.5746 4.96305C88.7337 5.03338 88.877 5.13627 88.9949 5.26528C89.1135 5.39429 89.2048 5.5467 89.2625 5.71299C89.3208 5.8793 89.3443 6.05592 89.3322 6.23195V17.1401C89.331 17.4803 89.1966 17.806 88.9594 18.046C88.7223 18.2859 88.4015 18.4206 88.0667 18.4206ZM81.6422 24.952C81.3227 24.9295 81.0228 24.7845 80.804 24.5463C80.5853 24.308 80.4642 23.9944 80.4642 23.6686C80.4642 23.3427 80.5853 23.029 80.804 22.7908C81.0228 22.5526 81.3227 22.4075 81.6422 22.385C83.0104 22.3834 84.3222 21.8305 85.2904 20.8474C86.2585 19.8644 86.8044 18.5313 86.8076 17.1401C86.7955 16.9642 86.819 16.7875 86.8773 16.6212C86.935 16.4549 87.0263 16.3025 87.1449 16.1735C87.2628 16.0445 87.4061 15.9416 87.5652 15.8713C87.7244 15.801 87.8962 15.7647 88.0699 15.7647C88.2436 15.7647 88.4154 15.801 88.5746 15.8713C88.7337 15.9416 88.877 16.0445 88.9949 16.1735C89.1135 16.3025 89.2048 16.4549 89.2625 16.6212C89.3208 16.7875 89.3443 16.9642 89.3322 17.1401C89.331 19.2125 88.5201 21.1996 87.0777 22.6644C85.6359 24.1292 83.6806 24.952 81.6422 24.952Z" fill="white"/>
<path d="M111.394 13.4152C111.394 13.4152 112.198 12.2766 112.887 11.1189C113.533 10.093 114.099 9.01263 114.58 7.8888C114.767 7.44534 114.849 6.96021 114.82 6.47522L114.124 6.5264C109.923 6.94214 105.644 7.85677 101.761 11.2212C100.239 12.4569 98.9357 13.9734 97.9143 15.6986C98.8698 14.7615 99.8709 13.8796 100.915 13.057C103.393 11.225 106.304 10.1743 109.317 10.0251C108.679 10.9378 108.1 11.8953 107.582 12.8907C106.946 13.9583 106.455 15.117 106.124 16.3319L111.394 13.4152ZM109.521 10.0828C109.521 10.0828 108.717 11.2212 108.026 12.3854C107.383 13.4011 106.817 14.4707 106.334 15.5835C106.15 16.0277 106.068 16.5122 106.094 16.997C106.094 16.997 106.352 16.9971 106.791 16.9395C110.991 16.5238 115.27 15.6091 119.153 12.2447C121.998 9.7821 123 7.76729 123 7.76729C122.043 8.7026 121.041 9.58431 119.999 10.409C117.523 12.2423 114.61 13.2912 111.597 13.4344C112.235 12.5238 112.814 11.5687 113.332 10.5753C113.968 9.50422 114.461 8.34386 114.796 7.12769L109.521 10.0828Z" fill="url(#paint0_linear_8_34)"/>
<defs>
<linearGradient id="paint0_linear_8_34" x1="97.9143" y1="15.43" x2="123.332" y2="8.90015" gradientUnits="userSpaceOnUse">
<stop stop-color="#F05310"/>
<stop offset="1" stop-color="#FFB906"/>
</linearGradient>
</defs>
</svg>
