<svg width="46" height="46" viewBox="0 0 46 46" fill="none" xmlns="http://www.w3.org/2000/svg">
<circle cx="23" cy="23" r="23" fill="#5A2FA0"/>
<path d="M21.2766 14.3302L22.1318 15.8626C22.9036 17.2455 22.5938 19.0596 21.3782 20.2752C21.3782 20.2752 19.9039 21.7497 22.577 24.4229C25.2494 27.0953 26.7248 25.6218 26.7248 25.6218C27.9404 24.4062 29.7545 24.0964 31.1374 24.8682L32.6698 25.7234C34.7581 26.8888 35.0046 29.8172 33.1692 31.6528C32.0663 32.7557 30.7151 33.614 29.2215 33.6705C26.7071 33.7659 22.4371 33.1296 18.1538 28.8462C13.8705 24.5629 13.2341 20.2929 13.3294 17.7785C13.3861 16.2849 14.2443 14.9338 15.3472 13.8309C17.1827 11.9953 20.1112 12.242 21.2766 14.3302Z" fill="white"/>
</svg>
