<svg width="223" height="27" viewBox="0 0 223 27" fill="none" xmlns="http://www.w3.org/2000/svg">
<path d="M36.6113 20V5.78125H47.0703V20H45.3027V7.24609H38.3789V20H36.6113ZM50.0977 24.1016V9.91211H51.6504L51.7188 11.2402H51.7676C52.028 10.8171 52.4251 10.459 52.959 10.166C53.4993 9.86654 54.1211 9.7168 54.8242 9.7168C56.1003 9.7168 57.1191 10.1921 57.8809 11.1426C58.6426 12.0931 59.0234 13.3073 59.0234 14.7852V15.0977C59.0234 16.582 58.6426 17.8027 57.8809 18.7598C57.1191 19.7168 56.1003 20.1953 54.8242 20.1953C54.1146 20.1953 53.5091 20.0684 53.0078 19.8145C52.513 19.554 52.1126 19.2155 51.8066 18.7988V24.1016H50.0977ZM51.8066 17.0312C52.0085 17.487 52.3372 17.8939 52.793 18.252C53.2487 18.6035 53.8021 18.7793 54.4531 18.7793C55.4232 18.7793 56.1328 18.4277 56.582 17.7246C57.0378 17.015 57.2656 16.1393 57.2656 15.0977V14.7852C57.2656 13.7435 57.0378 12.8743 56.582 12.1777C56.1328 11.4746 55.4232 11.123 54.4531 11.123C53.8021 11.123 53.2487 11.3021 52.793 11.6602C52.3372 12.0182 52.0085 12.4219 51.8066 12.8711V17.0312ZM60.6152 15.1074V14.7949C60.6152 13.2715 61.0286 12.0312 61.8555 11.0742C62.6888 10.1107 63.7858 9.62891 65.1465 9.62891C66.5137 9.62891 67.5618 10.0781 68.291 10.9766C69.0267 11.8685 69.3945 13.0859 69.3945 14.6289V15.3223H61.6602V13.9551H67.6758V13.7402C67.6758 12.998 67.4674 12.3633 67.0508 11.8359C66.6341 11.3021 66.0221 11.0352 65.2148 11.0352C64.2578 11.0352 63.5417 11.3965 63.0664 12.1191C62.5977 12.8418 62.3633 13.7337 62.3633 14.7949V15.1074C62.3633 16.1686 62.6107 17.0605 63.1055 17.7832C63.6068 18.5059 64.3783 18.8672 65.4199 18.8672C66.0645 18.8672 66.6178 18.7272 67.0801 18.4473C67.5488 18.1673 67.9264 17.832 68.2129 17.4414L69.3164 18.3301C69.0039 18.8053 68.5156 19.2513 67.8516 19.668C67.1875 20.0781 66.377 20.2832 65.4199 20.2832C63.8704 20.2832 62.6823 19.8047 61.8555 18.8477C61.0286 17.8841 60.6152 16.6374 60.6152 15.1074ZM79.1699 22.6172V20H71.7871V22.6172H70.2344V18.6523H80.7227V22.6172H79.1699ZM73.7695 11.2598L73.584 15.1758C73.5449 16.1198 73.4831 16.8587 73.3984 17.3926C73.3138 17.9264 73.1868 18.3984 73.0176 18.8086H71.2207C71.4225 18.5091 71.5918 18.0762 71.7285 17.5098C71.8717 16.9434 71.9661 16.084 72.0117 14.9316L72.2461 9.91211H79.2383V20H77.5195V11.2598H73.7695ZM84.0332 9.91211V13.3789H86.3867C87.6367 13.3789 88.6003 13.6751 89.2773 14.2676C89.9544 14.86 90.293 15.6608 90.293 16.6699C90.293 17.679 89.9544 18.4863 89.2773 19.0918C88.6003 19.6973 87.6367 20 86.3867 20H82.3242V9.91211H84.0332ZM86.3867 14.7363H84.0332V18.6523H86.3867C87.194 18.6523 87.7604 18.4668 88.0859 18.0957C88.4115 17.7181 88.5742 17.2428 88.5742 16.6699C88.5742 16.1035 88.4115 15.6413 88.0859 15.2832C87.7604 14.9186 87.194 14.7363 86.3867 14.7363ZM91.6797 20V9.91211H93.3887V20H91.6797ZM103.818 22.6172V20H96.4355V22.6172H94.8828V18.6523H105.371V22.6172H103.818ZM98.418 11.2598L98.2324 15.1758C98.1934 16.1198 98.1315 16.8587 98.0469 17.3926C97.9622 17.9264 97.8353 18.3984 97.666 18.8086H95.8691C96.071 18.5091 96.2402 18.0762 96.377 17.5098C96.5202 16.9434 96.6146 16.084 96.6602 14.9316L96.8945 9.91211H103.887V20H102.168V11.2598H98.418ZM106.025 24.0625V22.6074C106.195 22.6595 106.38 22.6986 106.582 22.7246C106.784 22.7572 106.982 22.7734 107.178 22.7734C107.633 22.7734 108.027 22.5911 108.359 22.2266C108.691 21.862 109.046 21.11 109.424 19.9707L105.654 9.91211H107.324L109.756 16.6504C109.847 16.9043 109.928 17.1419 110 17.3633C110.072 17.5846 110.133 17.793 110.186 17.9883H110.244C110.296 17.793 110.358 17.5846 110.43 17.3633C110.508 17.1419 110.589 16.9043 110.674 16.6504L112.969 9.91211H114.6L110.459 21.3672C110.127 22.2917 109.704 23.0046 109.189 23.5059C108.675 24.0072 108.037 24.2578 107.275 24.2578C107.015 24.2578 106.787 24.2415 106.592 24.209C106.396 24.1764 106.208 24.1276 106.025 24.0625ZM116.016 20V9.91211H117.725V18.6523H121.699V9.91211H123.418V18.6523H127.393V9.91211H129.102V18.6523H130.596V22.6172H129.033V20H116.016ZM132.207 20V9.91211H133.896V16.2598C133.896 16.4616 133.893 16.6764 133.887 16.9043C133.887 17.1322 133.88 17.3503 133.867 17.5586H133.965C134.056 17.3828 134.154 17.2038 134.258 17.0215C134.368 16.8392 134.489 16.6439 134.619 16.4355L138.662 9.91211H140.391V20H138.701V13.6621C138.701 13.4538 138.704 13.2292 138.711 12.9883C138.724 12.7474 138.737 12.5228 138.75 12.3145H138.613C138.535 12.4902 138.441 12.6758 138.33 12.8711C138.219 13.0664 138.102 13.2682 137.979 13.4766L133.936 20H132.207ZM143.203 20V9.91211H144.893V16.2598C144.893 16.4616 144.889 16.6764 144.883 16.9043C144.883 17.1322 144.876 17.3503 144.863 17.5586H144.961C145.052 17.3828 145.15 17.2038 145.254 17.0215C145.365 16.8392 145.485 16.6439 145.615 16.4355L149.658 9.91211H151.387V20H149.697V13.6621C149.697 13.4538 149.701 13.2292 149.707 12.9883C149.72 12.7474 149.733 12.5228 149.746 12.3145H149.609C149.531 12.4902 149.437 12.6758 149.326 12.8711C149.215 13.0664 149.098 13.2682 148.975 13.4766L144.932 20H143.203ZM147.295 6.94336C147.744 6.94336 148.122 6.81641 148.428 6.5625C148.734 6.30859 148.984 5.90169 149.18 5.3418L150.508 6.12305C150.208 6.87826 149.779 7.4349 149.219 7.79297C148.659 8.15104 148.018 8.33008 147.295 8.33008C146.572 8.33008 145.934 8.1543 145.381 7.80273C144.834 7.45117 144.401 6.89128 144.082 6.12305L145.42 5.3125C145.622 5.91797 145.872 6.34115 146.172 6.58203C146.478 6.82292 146.852 6.94336 147.295 6.94336ZM158.887 20V9.91211H163.213C164.32 9.91211 165.189 10.1335 165.82 10.5762C166.458 11.0189 166.777 11.6895 166.777 12.5879C166.777 13.1608 166.605 13.6393 166.26 14.0234C165.921 14.4076 165.469 14.6615 164.902 14.7852V14.8047C165.599 14.9089 166.146 15.1595 166.543 15.5566C166.94 15.9538 167.139 16.4648 167.139 17.0898C167.139 18.0078 166.807 18.724 166.143 19.2383C165.485 19.7461 164.603 20 163.496 20H158.887ZM160.596 14.1992H163.213C163.864 14.1992 164.333 14.0625 164.619 13.7891C164.906 13.5156 165.049 13.1445 165.049 12.6758C165.049 12.2201 164.906 11.8717 164.619 11.6309C164.333 11.3835 163.864 11.2598 163.213 11.2598H160.596V14.1992ZM160.596 18.6523H163.496C164.154 18.6523 164.639 18.5091 164.951 18.2227C165.264 17.9362 165.42 17.5553 165.42 17.0801C165.42 16.6178 165.267 16.2467 164.961 15.9668C164.655 15.6803 164.167 15.5371 163.496 15.5371H160.596V18.6523ZM168.975 15.1074V14.7949C168.975 13.2715 169.404 12.0312 170.264 11.0742C171.123 10.1107 172.269 9.62891 173.701 9.62891C175.14 9.62891 176.286 10.1107 177.139 11.0742C177.998 12.0312 178.428 13.2715 178.428 14.7949V15.1074C178.428 16.6309 177.998 17.8743 177.139 18.8379C176.286 19.8014 175.14 20.2832 173.701 20.2832C172.269 20.2832 171.123 19.8014 170.264 18.8379C169.404 17.8743 168.975 16.6309 168.975 15.1074ZM170.723 14.7949V15.1074C170.723 16.1686 170.973 17.0605 171.475 17.7832C171.976 18.5059 172.718 18.8672 173.701 18.8672C174.684 18.8672 175.426 18.5059 175.928 17.7832C176.429 17.0605 176.68 16.1686 176.68 15.1074V14.7949C176.68 13.7402 176.429 12.8516 175.928 12.1289C175.426 11.4062 174.684 11.0449 173.701 11.0449C172.718 11.0449 171.976 11.4062 171.475 12.1289C170.973 12.8516 170.723 13.7402 170.723 14.7949ZM180.645 9.91211H188.545V20H186.836V11.2598H182.354V20H180.645V9.91211ZM191.367 24.1016V9.91211H192.92L192.988 11.2402H193.037C193.298 10.8171 193.695 10.459 194.229 10.166C194.769 9.86654 195.391 9.7168 196.094 9.7168C197.37 9.7168 198.389 10.1921 199.15 11.1426C199.912 12.0931 200.293 13.3073 200.293 14.7852V15.0977C200.293 16.582 199.912 17.8027 199.15 18.7598C198.389 19.7168 197.37 20.1953 196.094 20.1953C195.384 20.1953 194.779 20.0684 194.277 19.8145C193.783 19.554 193.382 19.2155 193.076 18.7988V24.1016H191.367ZM193.076 17.0312C193.278 17.487 193.607 17.8939 194.062 18.252C194.518 18.6035 195.072 18.7793 195.723 18.7793C196.693 18.7793 197.402 18.4277 197.852 17.7246C198.307 17.015 198.535 16.1393 198.535 15.0977V14.7852C198.535 13.7435 198.307 12.8743 197.852 12.1777C197.402 11.4746 196.693 11.123 195.723 11.123C195.072 11.123 194.518 11.3021 194.062 11.6602C193.607 12.0182 193.278 12.4219 193.076 12.8711V17.0312ZM201.885 15.1074V14.7949C201.885 13.2715 202.314 12.0312 203.174 11.0742C204.033 10.1107 205.179 9.62891 206.611 9.62891C208.05 9.62891 209.196 10.1107 210.049 11.0742C210.908 12.0312 211.338 13.2715 211.338 14.7949V15.1074C211.338 16.6309 210.908 17.8743 210.049 18.8379C209.196 19.8014 208.05 20.2832 206.611 20.2832C205.179 20.2832 204.033 19.8014 203.174 18.8379C202.314 17.8743 201.885 16.6309 201.885 15.1074ZM203.633 14.7949V15.1074C203.633 16.1686 203.883 17.0605 204.385 17.7832C204.886 18.5059 205.628 18.8672 206.611 18.8672C207.594 18.8672 208.337 18.5059 208.838 17.7832C209.339 17.0605 209.59 16.1686 209.59 15.1074V14.7949C209.59 13.7402 209.339 12.8516 208.838 12.1289C208.337 11.4062 207.594 11.0449 206.611 11.0449C205.628 11.0449 204.886 11.4062 204.385 12.1289C203.883 12.8516 203.633 13.7402 203.633 14.7949ZM212.939 15.1074V14.7949C212.939 13.265 213.35 12.0215 214.17 11.0645C214.997 10.1074 216.126 9.62891 217.559 9.62891C218.9 9.62891 219.915 9.98698 220.605 10.7031C221.296 11.4193 221.641 12.2363 221.641 13.1543V13.2129H219.98V13.1543C219.98 12.5814 219.785 12.0866 219.395 11.6699C219.01 11.2533 218.402 11.0449 217.568 11.0449C216.592 11.0449 215.866 11.403 215.391 12.1191C214.922 12.8288 214.688 13.7207 214.688 14.7949V15.1074C214.688 16.1686 214.922 17.0605 215.391 17.7832C215.866 18.5059 216.589 18.8672 217.559 18.8672C218.398 18.8672 219.01 18.6589 219.395 18.2422C219.785 17.819 219.98 17.3177 219.98 16.7383V16.6797H221.641V16.7383C221.641 17.6562 221.292 18.4766 220.596 19.1992C219.906 19.9219 218.893 20.2832 217.559 20.2832C216.126 20.2832 214.997 19.8047 214.17 18.8477C213.35 17.8841 212.939 16.6374 212.939 15.1074Z" fill="black"/>
<path d="M22.5 13.5L4.5 13.5M4.5 13.5L9 18M4.5 13.5L9 9" stroke="black" stroke-width="0.833333" stroke-linecap="round" stroke-linejoin="round"/>
</svg>
