<svg width="34" height="34" viewBox="0 0 34 34" fill="none" xmlns="http://www.w3.org/2000/svg">
<path d="M17.0009 1.54831C8.46732 1.54831 1.54785 8.46642 1.54785 17.0007C1.54785 25.535 8.46664 32.4531 17.0009 32.4531C25.5359 32.4531 32.454 25.535 32.454 17.0007C32.454 8.46642 25.5359 1.54831 17.0009 1.54831ZM17.0009 6.16875C19.8246 6.16875 22.1128 8.45759 22.1128 11.28C22.1128 14.103 19.8246 16.3912 17.0009 16.3912C14.1786 16.3912 11.8904 14.103 11.8904 11.28C11.8904 8.45759 14.1786 6.16875 17.0009 6.16875ZM16.9975 28.413C14.1813 28.413 11.6019 27.3874 9.61241 25.6897C9.12777 25.2764 8.84811 24.6702 8.84811 24.0342C8.84811 21.1718 11.1648 18.8809 14.0279 18.8809H19.9753C22.8391 18.8809 25.1469 21.1718 25.1469 24.0342C25.1469 24.6709 24.8686 25.2757 24.3833 25.6891C22.3945 27.3874 19.8145 28.413 16.9975 28.413Z" fill="white" stroke="white" stroke-width="0.998203"/>
</svg>
