<svg width="34" height="34" viewBox="0 0 34 34" fill="none" xmlns="http://www.w3.org/2000/svg">
<path fill-rule="evenodd" clip-rule="evenodd" d="M31.1668 17C31.1668 24.824 24.8241 31.1667 17.0002 31.1667C9.17613 31.1667 2.8335 24.824 2.8335 17C2.8335 9.17596 9.17613 2.83334 17.0002 2.83334C24.8241 2.83334 31.1668 9.17596 31.1668 17ZM17.0002 10.9792C16.12 10.9792 15.4064 11.6927 15.4064 12.5729C15.4064 13.1597 14.9307 13.6354 14.3439 13.6354C13.7571 13.6354 13.2814 13.1597 13.2814 12.5729C13.2814 10.5191 14.9464 8.85417 17.0002 8.85417C19.0539 8.85417 20.7189 10.5191 20.7189 12.5729C20.7189 13.5799 20.3173 14.4953 19.6677 15.164C19.537 15.2984 19.4123 15.4231 19.2933 15.542C18.9876 15.8474 18.7197 16.115 18.4847 16.417C18.1744 16.8157 18.0627 17.1088 18.0627 17.3542V18.4167C18.0627 19.0035 17.5869 19.4792 17.0002 19.4792C16.4134 19.4792 15.9377 19.0035 15.9377 18.4167V17.3542C15.9377 16.426 16.3697 15.6746 16.8078 15.1119C17.1318 14.6955 17.5391 14.2889 17.8697 13.9591C17.9694 13.8596 18.0621 13.767 18.1434 13.6833C18.4233 13.3952 18.5939 13.0051 18.5939 12.5729C18.5939 11.6927 17.8803 10.9792 17.0002 10.9792ZM17.0002 24.0833C17.7826 24.0833 18.4168 23.4491 18.4168 22.6667C18.4168 21.8842 17.7826 21.25 17.0002 21.25C16.2177 21.25 15.5835 21.8842 15.5835 22.6667C15.5835 23.4491 16.2177 24.0833 17.0002 24.0833Z" fill="#D5D5D5"/>
</svg>
