<svg width="17" height="17" viewBox="0 0 17 17" fill="none" xmlns="http://www.w3.org/2000/svg">
<g clip-path="url(#clip0_8_24)">
<path d="M8.5 0C3.81368 0 0 3.81295 0 8.5C0 13.1863 3.81368 17 8.5 17C13.1871 17 17 13.1863 17 8.5C17 3.81295 13.1871 0 8.5 0ZM13.4038 8.77057C13.3677 8.857 13.316 8.93563 13.2508 9.00077L10.4175 11.8341C10.2794 11.9722 10.098 12.0416 9.91668 12.0416C9.73536 12.0416 9.55473 11.9722 9.41588 11.8341C9.13963 11.5571 9.13963 11.1088 9.41588 10.8325L11.0401 9.20832H4.25C3.859 9.20832 3.54168 8.891 3.54168 8.5C3.54168 8.1083 3.859 7.79168 4.25 7.79168H11.0401L9.41588 6.16748C9.13963 5.89053 9.13963 5.44216 9.41588 5.16591C9.69282 4.88896 10.1412 4.88896 10.4174 5.16591L13.2508 7.99853C13.3159 8.06371 13.3676 8.14234 13.4038 8.22946C13.4753 8.40225 13.4753 8.59705 13.4038 8.77057Z" fill="white"/>
</g>
<defs>
<clipPath id="clip0_8_24">
<rect width="17" height="17" fill="white"/>
</clipPath>
</defs>
</svg>
